<?xml version="1.0" encoding="UTF-8" standalone="no"?>
<svg
   xmlns:dc="http://purl.org/dc/elements/1.1/"
   xmlns:cc="http://creativecommons.org/ns#"
   xmlns:rdf="http://www.w3.org/1999/02/22-rdf-syntax-ns#"
   xmlns:svg="http://www.w3.org/2000/svg"
   xmlns="http://www.w3.org/2000/svg"
   id="svg8"
   version="1.1"
   viewBox="0 0 210 297"
   height="297mm"
   width="210mm">
  <defs
     id="defs2" />
  <metadata
     id="metadata5">
    <rdf:RDF>
      <cc:Work
         rdf:about="">
        <dc:format>image/svg+xml</dc:format>
        <dc:type
           rdf:resource="http://purl.org/dc/dcmitype/StillImage" />
        <dc:title></dc:title>
      </cc:Work>
    </rdf:RDF>
  </metadata>
  <g
     id="layer1">
    <g
       style="fill:#800080;fill-rule:evenodd"
       id="g31">
      <path
         points="46.113095,148.69003 62.326612,148.67123 62.326612,84.089668 46.113095,77.017859 "
         d="m 46.113095,77.017859 v 71.672171 l 16.213517,-0.0188 V 84.089668 Z"
         style="fill:#353564;fill-rule:evenodd;stroke:none;stroke-linejoin:round"
         id="path33" />
      <path
         points="80.886905,148.83333 101.73704,148.7795 62.326612,148.67123 46.113095,148.69003 "
         d="m 46.113095,148.69003 34.77381,0.1433 20.850135,-0.0538 -39.410428,-0.10827 z"
         style="fill:#afafde;fill-rule:evenodd;stroke:none;stroke-linejoin:round"
         id="path41" />
      <path
         points="101.73704,43.36166 101.73704,148.7795 62.326612,148.67123 62.326612,84.089668 "
         d="M 62.326612,84.089668 101.73704,43.36166 V 148.7795 l -39.410428,-0.10827 z"
         style="fill:#e9e9ff;fill-rule:evenodd;stroke:none;stroke-linejoin:round"
         id="path43" />
      <path
         points="80.886905,23.11329 101.73704,43.36166 62.326612,84.089668 46.113095,77.017859 "
         d="M 46.113095,77.017859 80.886905,23.11329 101.73704,43.36166 62.326612,84.089668 Z"
         style="fill:#4d4d9f;fill-rule:evenodd;stroke:none;stroke-linejoin:round"
         id="path35" />
      <path
         points="80.886905,148.83333 101.73704,148.7795 101.73704,43.36166 80.886905,23.11329 "
         d="m 80.886905,23.11329 v 125.72004 l 20.850135,-0.0538 V 43.36166 Z"
         style="fill:#d7d7ff;fill-rule:evenodd;stroke:none;stroke-linejoin:round"
         id="path39" />
      <path
         points="80.886905,23.11329 80.886905,148.83333 46.113095,148.69003 46.113095,77.017859 "
         d="M 46.113095,77.017859 80.886905,23.11329 v 125.72004 l -34.77381,-0.1433 z"
         style="fill:#8686bf;fill-rule:evenodd;stroke:none;stroke-linejoin:round"
         id="path37" />
    </g>
    <path
       d="m 123.97619,164.70832 -8.76362,1.52605 -3.7111,8.08441 -4.15947,-7.86312 -8.835519,-1.03125 6.192919,-6.38573 -1.74954,-8.72175 7.98691,3.91652 7.75423,-4.35909 -1.25674,8.80627 z"
       id="path45"
       style="fill:#800080;fill-rule:evenodd;stroke-width:0.26458332" />
  </g>
</svg>
